<?xml version="1.0" encoding="UTF-8"?>
<svg xmlns="http://www.w3.org/2000/svg" xmlns:xlink="http://www.w3.org/1999/xlink" width="3000" height="2000" viewBox="0 0 3000 2000">
<path fill-rule="evenodd" fill="rgb(0%, 0%, 0%)" fill-opacity="1" d="M 21.296875 1500.917969 L 2966.488281 1500.917969 C 2970.910156 1500.917969 2974.488281 1497.332031 2974.488281 1492.910156 C 2974.488281 1488.5 2970.910156 1484.914062 2966.488281 1484.914062 L 21.296875 1484.914062 C 16.882812 1484.914062 13.296875 1488.5 13.296875 1492.910156 C 13.296875 1497.332031 16.882812 1500.917969 21.296875 1500.917969 "/>
<path fill-rule="evenodd" fill="rgb(0%, 0%, 0%)" fill-opacity="1" d="M 2542.441406 1396.164062 L 2670.449219 1458.007812 C 2674.421875 1459.929688 2679.210938 1458.253906 2681.140625 1454.273438 C 2683.050781 1450.308594 2681.390625 1445.515625 2677.410156 1443.59375 L 2549.410156 1381.75 C 2545.429688 1379.828125 2540.640625 1381.503906 2538.730469 1385.472656 C 2536.800781 1389.449219 2538.46875 1394.242188 2542.441406 1396.164062 "/>
<path fill-rule="evenodd" fill="rgb(0%, 0%, 0%)" fill-opacity="1" d="M 2557.121094 1366.015625 L 2695.289062 1400.179688 C 2699.578125 1401.238281 2703.921875 1398.628906 2704.980469 1394.332031 C 2706.039062 1390.046875 2703.421875 1385.703125 2699.128906 1384.644531 L 2560.960938 1350.484375 C 2556.679688 1349.425781 2552.328125 1352.046875 2551.28125 1356.328125 C 2550.210938 1360.625 2552.839844 1364.957031 2557.121094 1366.015625 "/>
<path fill-rule="evenodd" fill="rgb(0%, 0%, 0%)" fill-opacity="1" d="M 902.71875 808.660156 C 1339.730469 808.660156 2136.609375 995.46875 2310.761719 1349.71875 C 2326.921875 1382.582031 2257.128906 1482.203125 2257.128906 1482.203125 L 448.199219 1481.894531 C 397.136719 1433.183594 350.714844 1331.765625 355.917969 1260.15625 C 373.308594 1020.753906 571.996094 808.660156 902.71875 808.660156 "/>
<path fill="none" stroke-width="110.02" stroke-linecap="round" stroke-linejoin="round" stroke="rgb(0%, 0%, 0%)" stroke-opacity="1" stroke-miterlimit="10" d="M 9027.1875 11913.398438 C 13397.304688 11913.398438 21366.09375 10045.3125 23107.617188 6502.8125 C 23269.21875 6174.179688 22571.289062 5177.96875 22571.289062 5177.96875 L 4481.992188 5181.054688 C 3971.367188 5668.164062 3507.148438 6682.34375 3559.179688 7398.4375 C 3733.085938 9792.460938 5719.960938 11913.398438 9027.1875 11913.398438 Z M 9027.1875 11913.398438 " transform="matrix(0.1, 0, 0, -0.1, 0, 2000)"/>
<path fill-rule="evenodd" fill="rgb(3.500366%, 0%, 0%)" fill-opacity="1" d="M 2307.199219 933.660156 C 2507.5 978 2633.261719 1152.832031 2599.699219 1326.265625 C 2589.5 1378.984375 2546.539062 1435.730469 2490.578125 1493.222656 L 2014.570312 1495.203125 C 1970.46875 1473.617188 1833.25 1290.433594 1873.871094 1165.589844 C 1928.539062 997.53125 2106.898438 889.320312 2307.199219 933.660156 "/>
<path fill-rule="evenodd" fill="rgb(3.500366%, 0%, 0%)" fill-opacity="1" d="M 2718.460938 1055.089844 C 2739.378906 1077.082031 2593.171875 1219.417969 2593.171875 1219.417969 L 2497.078125 1035.589844 C 2497.078125 1035.589844 2697.621094 1033.15625 2718.460938 1055.089844 "/>
<path fill-rule="evenodd" fill="rgb(3.500366%, 0%, 0%)" fill-opacity="1" d="M 2022.148438 788.691406 C 1987.75 788.128906 1984.921875 1024.507812 1984.921875 1024.507812 L 2210.929688 962.078125 C 2210.929688 962.078125 2056.441406 789.238281 2022.148438 788.691406 "/>
<path fill-rule="evenodd" fill="rgb(0%, 0%, 0%)" fill-opacity="1" d="M 588.074219 1466.984375 C 640.910156 1486.285156 358.871094 1450.828125 336.855469 1643.78125 C 320.085938 1790.792969 804.660156 1736.136719 666.285156 1889.460938 C 473.847656 2102.6875 106.410156 1910.679688 214.496094 1620.238281 C 262.398438 1491.53125 328.25 1473.671875 456.699219 1375.519531 C 488.96875 1350.867188 540.144531 1449.46875 588.074219 1466.984375 "/>
<path fill="none" stroke-width="110.02" stroke-linecap="round" stroke-linejoin="round" stroke="rgb(0%, 0%, 0%)" stroke-opacity="1" stroke-miterlimit="10" d="M 5880.742188 5330.15625 C 6409.101562 5137.148438 3588.710938 5491.71875 3368.554688 3562.1875 C 3200.859375 2092.070312 8046.601562 2638.632812 6662.851562 1105.390625 C 4738.476562 -1026.875 1064.101562 893.203125 2144.960938 3797.617188 C 2623.984375 5084.6875 3282.5 5263.28125 4566.992188 6244.804688 C 4889.6875 6491.328125 5401.445312 5505.3125 5880.742188 5330.15625 Z M 5880.742188 5330.15625 " transform="matrix(0.1, 0, 0, -0.1, 0, 2000)"/>
</svg>
