<?xml version="1.0" encoding="UTF-8"?>
<svg xmlns="http://www.w3.org/2000/svg" xmlns:xlink="http://www.w3.org/1999/xlink" width="3000" height="2000" viewBox="0 0 3000 2000">
<path fill-rule="evenodd" fill="rgb(0%, 0%, 0%)" fill-opacity="1" d="M 21.296875 1500.917969 L 2966.488281 1500.917969 C 2970.910156 1500.917969 2974.488281 1497.332031 2974.488281 1492.910156 C 2974.488281 1488.5 2970.910156 1484.914062 2966.488281 1484.914062 L 21.296875 1484.914062 C 16.882812 1484.914062 13.296875 1488.5 13.296875 1492.910156 C 13.296875 1497.332031 16.882812 1500.917969 21.296875 1500.917969 "/>
<path fill-rule="evenodd" fill="rgb(0%, 0%, 0%)" fill-opacity="1" d="M 2542.441406 1396.164062 L 2670.449219 1458.007812 C 2674.421875 1459.929688 2679.210938 1458.253906 2681.140625 1454.273438 C 2683.050781 1450.308594 2681.390625 1445.515625 2677.410156 1443.59375 L 2549.410156 1381.75 C 2545.429688 1379.828125 2540.640625 1381.503906 2538.730469 1385.472656 C 2536.800781 1389.449219 2538.46875 1394.242188 2542.441406 1396.164062 "/>
<path fill-rule="evenodd" fill="rgb(0%, 0%, 0%)" fill-opacity="1" d="M 2557.121094 1366.015625 L 2695.289062 1400.179688 C 2699.578125 1401.238281 2703.921875 1398.628906 2704.980469 1394.332031 C 2706.039062 1390.046875 2703.421875 1385.703125 2699.128906 1384.644531 L 2560.960938 1350.484375 C 2556.679688 1349.425781 2552.328125 1352.046875 2551.28125 1356.328125 C 2550.210938 1360.625 2552.839844 1364.957031 2557.121094 1366.015625 "/>
<path fill-rule="evenodd" fill="rgb(0%, 0%, 0%)" fill-opacity="1" d="M 902.71875 808.660156 C 1339.730469 808.660156 2136.609375 995.46875 2310.761719 1349.71875 C 2326.921875 1382.582031 2257.128906 1482.203125 2257.128906 1482.203125 L 448.199219 1481.894531 C 397.136719 1433.183594 350.714844 1331.765625 355.917969 1260.15625 C 373.308594 1020.753906 571.996094 808.660156 902.71875 808.660156 "/>
<path fill="none" stroke-width="110.02" stroke-linecap="round" stroke-linejoin="round" stroke="rgb(0%, 0%, 0%)" stroke-opacity="1" stroke-miterlimit="10" d="M 9027.1875 11913.398438 C 13397.304688 11913.398438 21366.09375 10045.3125 23107.617188 6502.8125 C 23269.21875 6174.179688 22571.289062 5177.96875 22571.289062 5177.96875 L 4481.992188 5181.054688 C 3971.367188 5668.164062 3507.148438 6682.34375 3559.179688 7398.4375 C 3733.085938 9792.460938 5719.960938 11913.398438 9027.1875 11913.398438 Z M 9027.1875 11913.398438 " transform="matrix(0.1, 0, 0, -0.1, 0, 2000)"/>
<path fill-rule="evenodd" fill="rgb(3.500366%, 0%, 0%)" fill-opacity="1" d="M 2307.199219 933.660156 C 2507.5 978 2633.261719 1152.832031 2599.699219 1326.265625 C 2589.5 1378.984375 2546.539062 1435.730469 2490.578125 1493.222656 L 2014.570312 1495.203125 C 1970.46875 1473.617188 1833.25 1290.433594 1873.871094 1165.589844 C 1928.539062 997.53125 2106.898438 889.320312 2307.199219 933.660156 "/>
<path fill-rule="evenodd" fill="rgb(3.500366%, 0%, 0%)" fill-opacity="1" d="M 2718.460938 1055.089844 C 2739.378906 1077.082031 2593.171875 1219.417969 2593.171875 1219.417969 L 2497.078125 1035.589844 C 2497.078125 1035.589844 2697.621094 1033.15625 2718.460938 1055.089844 "/>
<path fill-rule="evenodd" fill="rgb(3.500366%, 0%, 0%)" fill-opacity="1" d="M 2022.148438 788.691406 C 1987.75 788.128906 1984.921875 1024.507812 1984.921875 1024.507812 L 2210.929688 962.078125 C 2210.929688 962.078125 2056.441406 789.238281 2022.148438 788.691406 "/>
<path fill-rule="evenodd" fill="rgb(0%, 0%, 0%)" fill-opacity="1" d="M 588.074219 1466.984375 C 640.910156 1486.285156 358.871094 1450.828125 336.855469 1643.78125 C 320.085938 1790.792969 804.660156 1736.136719 666.285156 1889.460938 C 473.847656 2102.6875 106.410156 1910.679688 214.496094 1620.238281 C 262.398438 1491.53125 328.25 1473.671875 456.699219 1375.519531 C 488.96875 1350.867188 540.144531 1449.46875 588.074219 1466.984375 "/>
<path fill="none" stroke-width="110.02" stroke-linecap="round" stroke-linejoin="round" stroke="rgb(0%, 0%, 0%)" stroke-opacity="1" stroke-miterlimit="10" d="M 5880.742188 5330.15625 C 6409.101562 5137.148438 3588.710938 5491.71875 3368.554688 3562.1875 C 3200.859375 2092.070312 8046.601562 2638.632812 6662.851562 1105.390625 C 4738.476562 -1026.875 1064.101562 893.203125 2144.960938 3797.617188 C 2623.984375 5084.6875 3282.5 5263.28125 4566.992188 6244.804688 C 4889.6875 6491.328125 5401.445312 5505.3125 5880.742188 5330.15625 Z M 5880.742188 5330.15625 " transform="matrix(0.1, 0, 0, -0.1, 0, 2000)"/>
<path fill-rule="evenodd" fill="rgb(0%, 0%, 0%)" fill-opacity="1" d="M 1906.011719 583.621094 L 1798.238281 595.710938 C 1826.550781 698.589844 1853.910156 937.011719 1872.960938 1101.765625 L 1947.210938 1094.574219 C 1923.609375 920.421875 1909.398438 713.089844 1906.011719 583.621094 "/>
<path fill="none" stroke-width="110.04" stroke-linecap="round" stroke-linejoin="round" stroke="rgb(0%, 0%, 0%)" stroke-opacity="1" stroke-miterlimit="10" d="M 19060.117188 14163.789062 L 17982.382812 14042.890625 C 18265.507812 13014.101562 18539.101562 10629.882812 18729.609375 8982.34375 L 19472.109375 9054.257812 C 19236.09375 10795.78125 19093.984375 12869.101562 19060.117188 14163.789062 Z M 19060.117188 14163.789062 " transform="matrix(0.1, 0, 0, -0.1, 0, 2000)"/>
<path fill-rule="evenodd" fill="rgb(0%, 0%, 0%)" fill-opacity="1" d="M 1866.851562 482.671875 C 1884.671875 482.671875 1899.128906 509.449219 1899.128906 542.441406 C 1899.128906 575.429688 1884.671875 602.210938 1866.851562 602.210938 C 1849.039062 602.210938 1834.578125 575.429688 1834.578125 542.441406 C 1834.578125 509.449219 1849.039062 482.671875 1866.851562 482.671875 "/>
<path fill="none" stroke-width="109.99" stroke-linecap="round" stroke-linejoin="round" stroke="rgb(0%, 0%, 0%)" stroke-opacity="1" stroke-miterlimit="10" d="M 18668.515625 15173.28125 C 18846.71875 15173.28125 18991.289062 14905.507812 18991.289062 14575.585938 C 18991.289062 14245.703125 18846.71875 13977.890625 18668.515625 13977.890625 C 18490.390625 13977.890625 18345.78125 14245.703125 18345.78125 14575.585938 C 18345.78125 14905.507812 18490.390625 15173.28125 18668.515625 15173.28125 Z M 18668.515625 15173.28125 " transform="matrix(0.1, 0, 0, -0.1, 0, 2000)"/>
<path fill-rule="evenodd" fill="rgb(0%, 0%, 0%)" fill-opacity="1" d="M 1910.539062 508.261719 C 1926 512.398438 1932.550781 537.789062 1925.148438 564.929688 C 1917.75 592.070312 1899.199219 610.738281 1883.738281 606.609375 C 1868.269531 602.46875 1861.730469 577.078125 1869.121094 549.941406 C 1876.519531 522.800781 1895.078125 504.121094 1910.539062 508.261719 "/>
<path fill="none" stroke-width="110" stroke-linecap="round" stroke-linejoin="round" stroke="rgb(0%, 0%, 0%)" stroke-opacity="1" stroke-miterlimit="10" d="M 19105.390625 14917.382812 C 19260 14876.015625 19325.507812 14622.109375 19251.484375 14350.703125 C 19177.5 14079.296875 18991.992188 13892.617188 18837.382812 13933.90625 C 18682.695312 13975.3125 18617.304688 14229.21875 18691.210938 14500.585938 C 18765.195312 14771.992188 18950.78125 14958.789062 19105.390625 14917.382812 Z M 19105.390625 14917.382812 " transform="matrix(0.1, 0, 0, -0.1, 0, 2000)"/>
<path fill-rule="evenodd" fill="rgb(0%, 0%, 0%)" fill-opacity="1" d="M 1813.019531 492.359375 C 1831.691406 488.800781 1851.960938 512.210938 1858.25 544.601562 C 1864.550781 576.988281 1854.5 606.179688 1835.828125 609.738281 C 1817.160156 613.308594 1796.890625 589.898438 1790.589844 557.511719 C 1784.300781 525.109375 1794.351562 495.921875 1813.019531 492.359375 "/>
<path fill="none" stroke-width="110" stroke-linecap="round" stroke-linejoin="round" stroke="rgb(0%, 0%, 0%)" stroke-opacity="1" stroke-miterlimit="10" d="M 18130.195312 15076.40625 C 18316.914062 15111.992188 18519.609375 14877.890625 18582.5 14553.984375 C 18645.507812 14230.117188 18545 13938.203125 18358.28125 13902.617188 C 18171.601562 13866.914062 17968.90625 14101.015625 17905.898438 14424.882812 C 17843.007812 14748.90625 17943.515625 15040.78125 18130.195312 15076.40625 Z M 18130.195312 15076.40625 " transform="matrix(0.1, 0, 0, -0.1, 0, 2000)"/>
<path fill-rule="evenodd" fill="rgb(0%, 0%, 0%)" fill-opacity="1" d="M 1761.679688 533.269531 C 1777.539062 522.941406 1803.648438 532.699219 1819.960938 555.050781 C 1836.269531 577.410156 1836.640625 603.941406 1820.789062 614.269531 C 1804.941406 624.601562 1778.828125 614.839844 1762.511719 592.480469 C 1746.199219 570.128906 1745.828125 543.601562 1761.679688 533.269531 "/>
<path fill="none" stroke-width="109.97" stroke-linecap="round" stroke-linejoin="round" stroke="rgb(0%, 0%, 0%)" stroke-opacity="1" stroke-miterlimit="10" d="M 17616.796875 14667.304688 C 17775.390625 14770.585938 18036.484375 14673.007812 18199.609375 14449.492188 C 18362.695312 14225.898438 18366.40625 13960.585938 18207.890625 13857.304688 C 18049.414062 13753.984375 17788.28125 13851.601562 17625.117188 14075.195312 C 17461.992188 14298.710938 17458.28125 14563.984375 17616.796875 14667.304688 Z M 17616.796875 14667.304688 " transform="matrix(0.1, 0, 0, -0.1, 0, 2000)"/>
<path fill-rule="nonzero" fill="rgb(0%, 0%, 0%)" fill-opacity="1" d="M 495.5625 260.660156 C 495.164062 260.050781 494.769531 258.738281 494.378906 256.75 C 493.546875 252.5 496.65625 247.761719 503.710938 242.550781 C 510.761719 237.328125 514.757812 234.628906 515.695312 234.449219 L 517.304688 234.140625 C 519.585938 233.710938 521.742188 234.429688 523.78125 236.308594 C 525.820312 238.199219 527.152344 240.730469 527.777344 243.921875 C 528.164062 245.921875 528.167969 248.050781 527.777344 250.328125 C 524.902344 251.988281 524.125 256.210938 525.449219 262.980469 L 533.710938 299.871094 C 544.085938 352.898438 551.5625 395.550781 556.136719 427.839844 C 560.714844 460.121094 563.09375 476.730469 563.273438 477.660156 C 564.472656 483.769531 567.671875 488.398438 572.878906 491.53125 C 572.960938 495.519531 573.070312 498.910156 573.199219 501.710938 C 573.328125 504.511719 573.019531 506.121094 572.265625 506.539062 C 568.238281 508.011719 563.902344 510.558594 559.257812 514.210938 C 554.613281 517.859375 551.488281 519.839844 549.878906 520.148438 C 548.804688 520.359375 546.773438 519.578125 543.78125 517.808594 L 538.601562 504.121094 C 542.183594 491.839844 542.207031 476.671875 538.671875 458.601562 L 537.34375 451.820312 L 525.34375 388.351562 C 525.136719 387.289062 523.925781 385.730469 521.714844 383.671875 C 519.503906 381.609375 517.246094 380.558594 514.941406 380.519531 C 512.636719 380.480469 509.941406 380.761719 506.859375 381.351562 L 496.832031 384.519531 L 475.304688 388.648438 C 452.234375 393.078125 437.886719 396.050781 432.265625 397.539062 C 426.644531 399.03125 422.621094 400.53125 420.199219 402.03125 C 417.78125 403.53125 416.367188 404.320312 415.96875 404.390625 C 413.820312 404.808594 412.015625 404.121094 410.554688 402.328125 C 405.578125 405.359375 400.945312 407.28125 396.652344 408.101562 L 380.402344 410.398438 C 359.476562 414.421875 349.703125 419.949219 351.082031 426.988281 L 352.019531 431.78125 L 354.734375 447.800781 L 358.570312 465.269531 L 363.769531 496.121094 C 365.277344 503.828125 367.929688 512.210938 371.71875 521.28125 C 375.511719 530.339844 377.703125 536.398438 378.304688 539.460938 L 379.421875 547.308594 L 373.277344 553.238281 C 368.140625 551.890625 362.6875 551.761719 356.921875 552.871094 C 353.835938 553.460938 351.648438 554.019531 350.359375 554.539062 C 348.570312 553.230469 347.210938 552.671875 346.269531 552.851562 C 346.003906 552.898438 345.757812 553.078125 345.542969 553.398438 C 344.589844 551.378906 343.917969 549.371094 343.527344 547.371094 C 343.449219 546.980469 343.246094 545.21875 342.917969 542.109375 C 341.09375 515.710938 337.238281 485.699219 331.359375 452.078125 L 313.949219 352.421875 L 308.523438 318.300781 C 305.976562 305.28125 301.15625 291.660156 294.058594 277.441406 L 290.65625 274.988281 C 292.265625 274.679688 292.914062 273.730469 292.601562 272.128906 L 292.058594 269.339844 C 291.613281 267.078125 292.171875 265.660156 293.730469 265.089844 C 297.144531 259.058594 301.195312 255.589844 305.890625 254.691406 C 310.316406 253.839844 317.132812 254.53125 326.335938 256.761719 C 334.054688 328.21875 338.578125 367.339844 339.902344 374.121094 C 340.058594 374.921875 340.589844 376.921875 341.496094 380.121094 C 342.398438 383.328125 342.878906 385.058594 342.929688 385.328125 L 342.917969 387.398438 C 343.59375 390.851562 346.097656 393.679688 350.425781 395.890625 C 354.75 398.089844 358.925781 398.800781 362.949219 398.03125 L 365.566406 397.53125 C 367.578125 397.140625 370.695312 396.890625 374.914062 396.769531 C 379.136719 396.640625 382.1875 396.398438 384.0625 396.039062 C 385.136719 395.839844 390.183594 394.25 399.203125 391.269531 C 408.226562 388.300781 414.882812 386.398438 419.175781 385.578125 C 431.109375 383.28125 441.625 381.539062 450.714844 380.351562 C 459.804688 379.148438 464.484375 378.53125 464.753906 378.480469 C 466.496094 378.140625 467.578125 376.898438 467.992188 374.75 C 473.777344 375.160156 479.085938 374.898438 483.914062 373.96875 L 503.429688 370.21875 C 504.484375 368.5 505.683594 367.511719 507.023438 367.261719 C 511.855469 365.640625 515.007812 363.070312 516.472656 359.539062 C 517.941406 356.019531 518.507812 353.398438 518.167969 351.671875 L 515.945312 340.308594 L 508.664062 300.960938 L 506.832031 291.589844 C 502.828125 271.121094 499.070312 260.808594 495.5625 260.660156 "/>
<path fill-rule="nonzero" fill="rgb(0%, 0%, 0%)" fill-opacity="1" d="M 649.507812 212.058594 C 650.847656 211.800781 653.886719 211.5 658.617188 211.140625 C 663.347656 210.78125 667.660156 210.230469 671.550781 209.480469 L 717.464844 199.839844 L 735.527344 197.191406 C 738.34375 196.648438 743.28125 195.21875 750.34375 192.898438 C 757.40625 190.578125 763.214844 188.980469 767.777344 188.109375 C 775.019531 186.710938 779.003906 187.878906 779.730469 191.601562 C 779.785156 191.871094 779.816406 194.691406 779.824219 200.058594 C 779.832031 205.441406 778.921875 208.960938 777.09375 210.621094 C 775.265625 212.28125 772.34375 213.5 768.324219 214.269531 C 767.253906 214.46875 763.183594 214.980469 756.117188 215.789062 C 744.902344 211.730469 722.421875 212.949219 688.671875 219.429688 C 682.777344 220.558594 675.644531 222.109375 667.273438 224.058594 C 658.902344 226.011719 654.101562 227.421875 652.882812 228.269531 C 651.660156 229.128906 650.414062 230.230469 649.148438 231.570312 C 648.761719 238.128906 649.273438 249.820312 650.6875 266.648438 C 652.101562 283.46875 653.015625 292.949219 653.433594 295.078125 C 654.628906 301.191406 656.679688 306.691406 659.578125 311.578125 C 662.480469 316.46875 664.449219 320.679688 665.484375 324.199219 C 666.523438 327.730469 670.050781 328.910156 676.074219 327.75 L 679.289062 327.140625 C 680.761719 326.851562 681.65625 326.820312 681.976562 327.03125 C 682.003906 327.171875 683.066406 327.621094 685.160156 328.390625 C 687.253906 329.160156 689.574219 329.300781 692.117188 328.808594 C 694.660156 328.320312 698.558594 327.289062 703.808594 325.730469 C 709.0625 324.171875 713.023438 323.140625 715.703125 322.621094 C 716.371094 322.488281 717.601562 322.398438 719.394531 322.328125 C 721.1875 322.261719 722.550781 322.128906 723.488281 321.960938 C 727.371094 321.210938 730.265625 319.691406 732.179688 317.390625 L 743.21875 316.300781 C 745.261719 314.671875 752.617188 312.160156 765.285156 308.761719 C 765.710938 309.5 766.09375 310.738281 766.429688 312.46875 C 766.664062 313.660156 766.875 315.449219 767.0625 317.828125 C 767.246094 320.199219 767.457031 321.988281 767.691406 323.191406 C 768.082031 325.179688 768.488281 326.550781 768.914062 327.300781 C 768.207031 333.640625 763.636719 337.621094 755.203125 339.238281 C 752.929688 339.671875 748.925781 339.441406 743.191406 338.539062 C 737.460938 337.648438 731.714844 337.75 725.960938 338.859375 L 714.191406 341.53125 C 711.242188 342.101562 706.023438 342.75 698.53125 343.5 C 691.035156 344.25 685.015625 345.058594 680.460938 345.941406 L 674.640625 347.058594 C 671.46875 350.011719 669.371094 352.449219 668.359375 354.371094 C 667.34375 356.28125 666.914062 361.539062 667.066406 370.128906 C 667.21875 378.71875 668.207031 387.660156 670.027344 396.960938 C 671.324219 403.609375 673.84375 413.640625 677.582031 427.058594 C 681.320312 440.46875 684.128906 450.71875 686 457.808594 C 687.875 464.898438 689.042969 468.570312 689.511719 468.820312 C 689.976562 469.078125 690.964844 469.339844 692.476562 469.601562 C 693.984375 469.859375 695.140625 470.261719 695.941406 470.789062 L 707.871094 468.910156 C 714.570312 467.628906 723.785156 465.378906 735.527344 462.160156 L 752.726562 457.398438 L 758.472656 456.921875 C 760.238281 456.71875 762.597656 456.339844 765.539062 455.769531 C 776.925781 453.578125 793.347656 448.019531 814.804688 439.070312 C 818.40625 436.171875 820.941406 434.578125 822.414062 434.300781 C 824.023438 433.988281 825.085938 435.160156 825.605469 437.820312 L 825.117188 445.980469 L 826.882812 452.878906 C 827.820312 457.671875 827.257812 460.839844 825.199219 462.410156 C 823.140625 463.980469 818.621094 465.429688 811.648438 466.769531 C 806.550781 467.75 798.359375 468.910156 787.070312 470.25 C 774.851562 470.390625 762.972656 471.570312 751.4375 473.789062 L 701.296875 484.238281 L 694.457031 485.558594 C 691.914062 484.671875 690.378906 484.269531 689.839844 484.371094 C 688.902344 484.558594 688.210938 485.101562 687.761719 486.019531 C 687.3125 486.929688 686.445312 487.300781 685.160156 487.128906 C 683.878906 486.96875 682.898438 486.949219 682.226562 487.078125 C 680.351562 487.441406 678.761719 488.570312 677.464844 490.46875 C 674.054688 491.539062 671.554688 493.328125 669.957031 495.851562 L 668.550781 496.121094 C 666.269531 496.558594 664.195312 495.921875 662.332031 494.210938 C 663.335938 492.21875 663.691406 490.5 663.40625 489.039062 L 662.339844 485.730469 C 662.003906 484 662.117188 482.460938 662.691406 481.109375 C 662.101562 480.949219 661.730469 480.46875 661.574219 479.671875 C 661.441406 479.011719 661.269531 477.039062 661.046875 473.769531 C 659.359375 450.929688 656.203125 427.679688 651.574219 404.019531 L 643.335938 364.03125 L 638.640625 335.769531 L 636.730469 326 L 626.796875 273.101562 C 624.273438 260.210938 621.6875 249.121094 619.035156 239.839844 C 615.222656 232.441406 613.132812 227.800781 612.769531 225.941406 C 612.507812 224.609375 612.964844 223.390625 614.136719 222.269531 C 615.308594 221.148438 620.734375 218.28125 630.40625 213.660156 L 630.703125 210.921875 L 634.476562 212.050781 L 637.136719 210.710938 C 640.757812 210.019531 644.882812 210.46875 649.507812 212.058594 "/>
<path fill-rule="nonzero" fill="rgb(0%, 0%, 0%)" fill-opacity="1" d="M 1040.550781 397.980469 C 1043.378906 400.339844 1045.210938 403.640625 1046.039062 407.890625 C 1047.078125 413.210938 1047.011719 417.289062 1045.828125 420.140625 C 1044.640625 422.980469 1043.109375 424.589844 1041.238281 424.949219 C 1039.488281 425.28125 1036.21875 425.460938 1031.429688 425.488281 C 1026.628906 425.511719 1024.070312 424.730469 1023.761719 423.128906 L 1022.699219 426.230469 L 1021.488281 426.46875 C 1020.28125 426.699219 1018.878906 426.109375 1017.28125 424.691406 C 1015.679688 423.269531 1014.640625 422.398438 1014.160156 422.078125 C 1004.949219 425.511719 994.511719 428.339844 982.84375 430.578125 L 944.617188 437.921875 C 939.117188 438.980469 931.320312 440.75 921.230469 443.238281 C 918.074219 447.019531 916.160156 448.96875 915.488281 449.101562 L 915.085938 449.179688 C 911.023438 447.609375 905.707031 447.460938 899.132812 448.730469 L 892.773438 450.359375 C 891.9375 451.070312 891.128906 452.261719 890.339844 453.929688 C 887.433594 451.871094 885.691406 449.378906 885.121094 446.449219 C 884.652344 444.058594 884.605469 440.96875 884.976562 437.171875 C 886.394531 433.039062 886.179688 426.261719 884.332031 416.820312 L 883.320312 411.640625 C 882.609375 395.921875 879.640625 374.699219 874.414062 347.988281 L 859.660156 274.699219 C 859.011719 271.378906 858.386719 266.78125 857.792969 260.890625 C 857.199219 255.011719 856.65625 250.808594 856.160156 248.28125 L 852.480469 225.199219 C 851.101562 218.160156 848.628906 210.839844 845.054688 203.25 C 841.484375 195.671875 839.289062 190.851562 838.46875 188.800781 L 835.105469 186.550781 L 834.871094 185.351562 C 833.105469 176.308594 837.050781 170.871094 846.707031 169.011719 C 854.085938 167.601562 860.53125 168.191406 866.050781 170.78125 C 871.566406 173.371094 874.84375 177.328125 875.886719 182.648438 C 872.058594 190.828125 871.5625 202.160156 874.394531 216.648438 L 878.425781 235.109375 C 879.207031 239.101562 879.835938 244.96875 880.308594 252.738281 C 880.785156 260.511719 881.386719 266.261719 882.117188 269.980469 C 882.558594 272.238281 883.632812 276.128906 885.34375 281.660156 C 887.050781 287.199219 888.230469 291.621094 888.878906 294.949219 L 893.0625 321.648438 L 900.082031 357.53125 L 906.140625 399.191406 C 908.015625 408.761719 911.183594 416.769531 915.644531 423.21875 C 918.648438 422.921875 922.09375 422.390625 925.984375 421.640625 C 926.753906 422.738281 933.707031 422.539062 946.847656 421.050781 C 959.984375 419.558594 969.4375 418.261719 975.203125 417.160156 C 990.628906 414.191406 1001.960938 410.21875 1009.199219 405.25 C 1009.839844 405.679688 1010.289062 405.859375 1010.558594 405.808594 C 1011.230469 405.679688 1012.78125 404.871094 1015.199219 403.371094 C 1017.621094 401.871094 1019.96875 400.898438 1022.25 400.46875 L 1027.480469 400.5 L 1040.550781 397.980469 "/>
<path fill-rule="nonzero" fill="rgb(0%, 0%, 0%)" fill-opacity="1" d="M 1244.160156 358.878906 C 1246.988281 361.230469 1248.808594 364.53125 1249.648438 368.789062 C 1250.691406 374.101562 1250.621094 378.179688 1249.429688 381.03125 C 1248.25 383.878906 1246.71875 385.480469 1244.839844 385.839844 C 1243.101562 386.179688 1239.828125 386.359375 1235.03125 386.378906 C 1230.238281 386.410156 1227.679688 385.621094 1227.371094 384.03125 L 1226.308594 387.128906 L 1225.101562 387.359375 C 1223.890625 387.589844 1222.488281 387 1220.890625 385.578125 C 1219.289062 384.171875 1218.25 383.300781 1217.769531 382.980469 C 1208.558594 386.398438 1198.121094 389.230469 1186.449219 391.46875 L 1148.21875 398.820312 C 1142.71875 399.871094 1134.929688 401.640625 1124.839844 404.128906 C 1121.679688 407.910156 1119.769531 409.871094 1119.101562 409.988281 L 1118.691406 410.070312 C 1114.628906 408.511719 1109.308594 408.359375 1102.738281 409.621094 L 1096.378906 411.261719 C 1095.539062 411.96875 1094.730469 413.160156 1093.949219 414.820312 C 1091.039062 412.761719 1089.300781 410.269531 1088.730469 407.351562 C 1088.261719 404.960938 1088.210938 401.859375 1088.578125 398.070312 C 1090 393.929688 1089.789062 387.148438 1087.941406 377.710938 L 1086.929688 372.53125 C 1086.210938 356.808594 1083.25 335.589844 1078.019531 308.878906 L 1063.269531 235.601562 C 1062.621094 232.269531 1061.988281 227.671875 1061.398438 221.789062 C 1060.808594 215.898438 1060.261719 211.699219 1059.769531 209.171875 L 1056.089844 186.089844 C 1054.710938 179.050781 1052.230469 171.730469 1048.660156 164.148438 C 1045.089844 156.558594 1042.890625 151.738281 1042.078125 149.691406 L 1038.710938 147.441406 L 1038.480469 146.25 C 1036.710938 137.210938 1040.660156 131.761719 1050.308594 129.910156 C 1057.691406 128.488281 1064.140625 129.078125 1069.660156 131.671875 C 1075.171875 134.269531 1078.449219 138.21875 1079.488281 143.539062 C 1075.671875 151.71875 1075.171875 163.050781 1078 177.539062 L 1082.03125 196 C 1082.808594 199.988281 1083.441406 205.871094 1083.921875 213.628906 C 1084.390625 221.398438 1084.988281 227.148438 1085.71875 230.871094 C 1086.160156 233.128906 1087.238281 237.019531 1088.949219 242.558594 C 1090.660156 248.089844 1091.839844 252.519531 1092.488281 255.839844 L 1096.671875 282.550781 L 1103.691406 318.429688 L 1109.75 360.078125 C 1111.621094 369.648438 1114.789062 377.660156 1119.25 384.109375 C 1122.25 383.808594 1125.699219 383.289062 1129.589844 382.539062 C 1130.359375 383.628906 1137.308594 383.429688 1150.449219 381.941406 C 1163.589844 380.449219 1173.039062 379.160156 1178.808594 378.050781 C 1194.238281 375.078125 1205.570312 371.121094 1212.808594 366.140625 C 1213.449219 366.570312 1213.898438 366.761719 1214.171875 366.710938 C 1214.839844 366.578125 1216.390625 365.761719 1218.808594 364.261719 C 1221.230469 362.761719 1223.578125 361.800781 1225.859375 361.359375 L 1231.078125 361.390625 L 1244.160156 358.878906 "/>
<path fill-rule="nonzero" fill="rgb(0%, 0%, 0%)" fill-opacity="1" d="M 1445.289062 68.109375 C 1454.550781 65.640625 1468.230469 73.671875 1486.320312 92.191406 C 1504.421875 110.699219 1515.941406 132.589844 1520.878906 157.839844 C 1523.398438 170.730469 1524.589844 183.191406 1524.429688 195.210938 C 1524.28125 207.238281 1522.730469 218.5 1519.769531 229 C 1513.578125 252.109375 1508.941406 267.199219 1505.871094 274.269531 C 1499.078125 290.058594 1490.5 303.289062 1480.128906 313.96875 C 1469.769531 324.648438 1458.699219 333.148438 1446.921875 339.480469 C 1435.148438 345.808594 1421.421875 350.480469 1405.71875 353.488281 C 1368.441406 360.660156 1347.75 361.25 1343.660156 355.28125 C 1340.769531 354.730469 1336.460938 354.078125 1330.75 353.308594 C 1325.03125 352.550781 1321.921875 351.941406 1321.410156 351.488281 L 1314.929688 346.109375 C 1310 345.820312 1307.410156 345.699219 1307.140625 345.75 C 1291.339844 339.679688 1278.671875 329.699219 1269.128906 315.808594 C 1259.601562 301.929688 1252.109375 281.089844 1246.679688 253.320312 C 1242.488281 231.921875 1244.929688 205.601562 1253.980469 174.351562 C 1254.558594 172.308594 1254.941406 169.789062 1255.109375 166.789062 C 1255.289062 163.789062 1256.441406 161.121094 1258.558594 158.789062 C 1260.679688 156.449219 1261.730469 154.519531 1261.710938 153.011719 C 1270.660156 138.328125 1275.898438 129.359375 1277.421875 126.101562 C 1278.941406 122.851562 1283.230469 118.960938 1290.269531 114.429688 C 1297.320312 109.910156 1301.640625 105.28125 1303.21875 100.570312 C 1303.761719 99.078125 1304.839844 98.359375 1306.449219 98.398438 C 1308.050781 98.429688 1309.261719 98.371094 1310.058594 98.21875 L 1311.601562 97.511719 C 1312.300781 96.128906 1313.058594 94.851562 1313.871094 93.660156 C 1314.679688 92.46875 1315.328125 91.898438 1315.828125 91.941406 C 1316.328125 91.980469 1321.140625 89.398438 1330.289062 84.199219 C 1339.429688 79 1344.800781 76.410156 1346.410156 76.449219 C 1348.019531 76.488281 1353.710938 74.808594 1363.480469 71.410156 L 1376.089844 66.511719 C 1379.171875 65.921875 1382.960938 65.710938 1387.449219 65.878906 C 1391.929688 66.050781 1394.941406 66.128906 1396.46875 66.109375 C 1421.511719 63.921875 1437.78125 64.589844 1445.289062 68.109375 Z M 1490.128906 265.300781 C 1500.640625 232.949219 1503.519531 204.609375 1498.761719 180.289062 C 1495.511719 163.679688 1490.648438 149.160156 1484.191406 136.761719 C 1477.71875 124.339844 1469.898438 114.230469 1460.71875 106.410156 C 1451.53125 98.589844 1441.429688 92.839844 1430.410156 89.171875 C 1419.398438 85.488281 1406.03125 84.199219 1390.308594 85.289062 C 1374.578125 86.378906 1365.25 87.210938 1362.300781 87.769531 C 1361.890625 87.851562 1360.820312 88.78125 1359.078125 90.558594 C 1357.351562 92.339844 1355.878906 94.449219 1354.691406 96.890625 C 1353.101562 98.019531 1350.960938 98.839844 1348.28125 99.359375 L 1341.558594 100.238281 C 1336.601562 101.191406 1333.308594 103.960938 1331.710938 108.539062 C 1331.488281 108.859375 1331.109375 109.070312 1330.578125 109.171875 C 1329.910156 109.300781 1329.238281 108.738281 1328.578125 107.488281 L 1325.871094 109.660156 L 1326.421875 112.449219 C 1326.019531 112.53125 1325.460938 112.160156 1324.738281 111.328125 C 1324.019531 110.5 1323.320312 110.148438 1322.648438 110.28125 L 1321.851562 110.429688 C 1309.960938 117.269531 1303.238281 122.351562 1301.660156 125.691406 C 1298.679688 127.5 1296.339844 128.710938 1294.648438 129.308594 C 1293.351562 131.210938 1291.46875 134.609375 1289.019531 139.488281 C 1286.558594 144.378906 1284.539062 148.25 1282.941406 151.109375 C 1281.339844 153.960938 1279.730469 156.410156 1278.109375 158.441406 C 1276.488281 160.480469 1276.101562 163.621094 1276.929688 167.878906 C 1271.179688 175.460938 1267.679688 187.101562 1266.429688 202.78125 C 1265.191406 218.460938 1266.128906 234.28125 1269.238281 250.230469 C 1272.109375 264.839844 1276.910156 277.640625 1283.640625 288.621094 C 1290.390625 299.601562 1297.269531 306 1304.308594 307.820312 L 1305.128906 312 C 1310.21875 315.988281 1315.519531 319.589844 1321.019531 322.808594 C 1326.519531 326.03125 1334.070312 328.339844 1343.671875 329.730469 C 1353.269531 331.128906 1361.359375 332.128906 1367.949219 332.71875 C 1374.53125 333.320312 1381.800781 333.46875 1389.75 333.191406 C 1397.691406 332.898438 1405.488281 332.03125 1413.140625 330.558594 C 1417.699219 329.679688 1421.289062 328.859375 1423.921875 328.070312 L 1437.539062 321.941406 C 1441.648438 320.191406 1444.941406 318.859375 1447.410156 317.980469 C 1448.300781 317.53125 1451.460938 314.851562 1456.910156 309.949219 L 1469.789062 298.988281 C 1471.011719 298.070312 1471.871094 297.148438 1472.378906 296.21875 C 1472.980469 295 1473.148438 293.730469 1472.890625 292.398438 L 1472.578125 290.808594 C 1472.988281 289.351562 1475.191406 286.921875 1479.191406 283.539062 C 1483.191406 280.148438 1486.390625 277.46875 1488.789062 275.488281 C 1491.179688 273.511719 1492.171875 271.460938 1491.761719 269.328125 C 1491.421875 267.609375 1490.878906 266.261719 1490.128906 265.300781 "/>
<path fill-rule="nonzero" fill="rgb(0%, 0%, 0%)" fill-opacity="1" d="M 1595.988281 10.410156 C 1598.449219 42.859375 1603.339844 81.738281 1610.671875 127.039062 C 1618 172.328125 1622.558594 204.519531 1624.339844 223.601562 L 1623.539062 223.761719 C 1622.199219 224.019531 1621 225.378906 1619.960938 227.859375 C 1618.910156 230.328125 1618.050781 231.628906 1617.378906 231.761719 L 1616.980469 231.839844 C 1616.710938 231.890625 1616.28125 231.828125 1615.691406 231.671875 C 1615.101562 231.511719 1614.679688 231.449219 1614.410156 231.5 C 1614.140625 231.558594 1613.859375 231.75 1613.578125 232.078125 C 1613.300781 232.410156 1613.089844 232.578125 1612.949219 232.609375 C 1610.5 230.738281 1608.941406 228.078125 1608.261719 224.621094 C 1607.789062 222.238281 1607.710938 219.699219 1608.03125 217.03125 C 1609.339844 204.511719 1608.171875 188.960938 1604.539062 170.371094 L 1590.480469 116.660156 C 1585.480469 97.5 1581.121094 82.179688 1577.421875 70.699219 C 1573.710938 59.21875 1571.449219 51.421875 1570.648438 47.308594 C 1569.691406 42.398438 1569.019531 38.460938 1568.648438 35.5 C 1568.28125 32.539062 1568.28125 29.859375 1568.640625 27.441406 C 1569 25.03125 1569.890625 22.789062 1571.289062 20.730469 C 1572.699219 18.671875 1575.429688 16.25 1579.480469 13.480469 C 1583.53125 10.699219 1586.621094 9.109375 1588.769531 8.699219 C 1590.511719 8.359375 1592.921875 8.929688 1595.988281 10.410156 Z M 1642.488281 289.679688 C 1643.058594 292.621094 1641.628906 299.890625 1638.199219 311.511719 L 1636.789062 311.78125 C 1635.449219 312.03125 1634.148438 313.039062 1632.898438 314.808594 C 1631.640625 316.570312 1630.570312 317.679688 1629.691406 318.128906 C 1619.320312 316.378906 1613.640625 312.960938 1612.648438 307.878906 L 1611.980469 304.480469 C 1609.789062 293.25 1613.308594 285.640625 1622.550781 281.648438 L 1622.46875 281.25 L 1622.871094 281.171875 C 1626.230469 280.53125 1632.628906 282.699219 1642.101562 287.671875 L 1642.488281 289.679688 "/>
</svg>
